<svg xmlns="http://www.w3.org/2000/svg" viewBox="0 0 79.34 79.34"><defs><style>.cls-1{fill:#d5d0f7;}.cls-2{fill:#545e73;}.cls-3{fill:#5881bc;}.cls-4{fill:#38454f;}.cls-5{fill:#88a8e2;}.cls-6{fill:#556080;}.cls-7{fill:#81aeef;}.cls-8{fill:#bfd4ff;}.cls-9{fill:#8697cb;}</style></defs><g id="Layer_2" data-name="Layer 2"><g id="Capa_1" data-name="Capa 1"><circle class="cls-1" cx="39.67" cy="39.67" r="39.67"/><path class="cls-2" d="M60.5,23.58h0c-.63-3.88-9.71-7-20.83-7s-20.2,3.08-20.84,7h0V55.76h0c.64,3.88,9.72,7,20.84,7s20.2-3.08,20.83-7h0V23.58Z"/><path class="cls-3" d="M39.67,52.28c-11.53,0-20.88-3.31-20.88-7.39V55.76h0c.64,3.88,9.72,7,20.84,7s20.2-3.08,20.83-7h0V44.89C60.54,49,51.2,52.28,39.67,52.28Z"/><path class="cls-4" d="M18.79,44.45v.44a3.27,3.27,0,0,1,0-.44Z"/><path class="cls-4" d="M60.5,44.45a2.18,2.18,0,0,1,0,.44v-.44Z"/><path class="cls-5" d="M39.67,41.84c-11.53,0-20.88-3.31-20.88-7.39V45.32h0c.64,3.88,9.72,7,20.84,7s20.2-3.08,20.83-7h0V34.45C60.54,38.53,51.2,41.84,39.67,41.84Z"/><path class="cls-6" d="M18.79,34v.43a3,3,0,0,1,0-.43Z"/><path class="cls-6" d="M60.5,34a2,2,0,0,1,0,.43V34Z"/><ellipse class="cls-7" cx="39.67" cy="24.01" rx="20.87" ry="7.39"/><path class="cls-8" d="M39.67,31.41c-11.53,0-20.88-3.31-20.88-7.4V34.89h0c.64,3.88,9.72,7,20.84,7s20.2-3.07,20.83-7h0V24C60.54,28.1,51.2,31.41,39.67,31.41Z"/><path class="cls-9" d="M18.79,23.58V24a3.13,3.13,0,0,1,0-.43Z"/><path class="cls-9" d="M60.5,23.58a2.09,2.09,0,0,1,0,.43v-.43Z"/></g></g></svg>