<svg xmlns="http://www.w3.org/2000/svg" xmlns:xlink="http://www.w3.org/1999/xlink" viewBox="0 0 253.51 253.51"><defs><style>.cls-1{fill:#bfd4ff;}.cls-2{fill:#c9c8fc;}.cls-3{fill:#aba5ef;}.cls-4{fill:#70a4ef;}.cls-5{fill:#b0d9f7;}.cls-6{fill:#a8c1ef;}.cls-7{fill:#588eed;}.cls-8{fill:#87d5f4;}.cls-9{fill:#58e3ed;}.cls-10{opacity:0.51;fill:url(#linear-gradient);}</style><linearGradient id="linear-gradient" x1="318.66" y1="428.86" x2="318.66" y2="615.86" gradientTransform="translate(-191.91 -388.63)" gradientUnits="userSpaceOnUse"><stop offset="0.22" stop-color="#fff"/><stop offset="1" stop-color="#537af4"/></linearGradient></defs><g id="Layer_2" data-name="Layer 2"><g id="Layer_1-2" data-name="Layer 1"><path class="cls-1" d="M126.76,169.89l44.54,44.55-35.2,35.2a13.21,13.21,0,0,1-18.68,0l-35.21-35.2Z"/><rect class="cls-2" x="139.1" y="139.1" width="63" height="63" transform="translate(-70.66 170.6) rotate(-45)"/><path class="cls-3" d="M214.44,82.21l35.2,35.21a13.21,13.21,0,0,1,0,18.68l-35.2,35.2-44.55-44.54Z"/><rect class="cls-4" x="51.42" y="139.1" width="63" height="63" transform="translate(-96.35 108.6) rotate(-45)"/><rect class="cls-5" x="95.26" y="95.26" width="63" height="63" transform="translate(-52.5 126.76) rotate(-45)"/><rect class="cls-6" x="139.1" y="51.42" width="63" height="63" transform="translate(-8.66 144.92) rotate(-45)"/><path class="cls-7" d="M39.08,82.21l44.54,44.55L39.08,171.3,3.87,136.1a13.21,13.21,0,0,1,0-18.68Z"/><rect class="cls-8" x="51.42" y="51.42" width="63" height="63" transform="translate(-34.35 82.92) rotate(-45)"/><path class="cls-9" d="M136.1,3.87l35.2,35.21L126.76,83.62,82.21,39.08,117.42,3.87A13.21,13.21,0,0,1,136.1,3.87Z"/><rect class="cls-10" x="33.26" y="33.26" width="187" height="187" rx="13.54" transform="translate(126.76 -52.5) rotate(45)"/></g></g></svg>